<svg xmlns="http://www.w3.org/2000/svg" fill="none" viewBox="0 0 100 100" height="50" width="50"><path fill="#F5AC5F" d="M79.1989 11.9768C76.1552 9.20977 60.2726 0.798077 40.7376 5.72335C31.4404 8.04763 22.8074 13.0836 16.1665 20.0011C13.1782 23.1001 11.4073 27.0293 9.47038 30.7371C5.20919 38.9274 2.27618 49.3314 3.549 58.6838C3.99172 62.1149 5.37523 65.6567 6.64805 68.8664C8.86166 74.4558 13.5656 78.8277 17.9928 82.6461C30.1123 93.1607 47.6551 97.1452 63.427 95.7617C70.1232 95.2083 77.1514 93.2714 82.5193 89.0656C84.899 87.184 86.6699 84.583 88.4407 82.1481C95.5796 72.5742 97.4612 60.2887 96.0777 48.6119C95.1922 41.4177 94.4728 34.2235 91.1524 27.9147C88.3854 22.7681 84.8436 17.1234 79.1989 11.9768Z"></path><path fill="#1E9A64" d="M39.5512 31.0434C40.232 29.6817 50.7687 22.6637 50.8735 22.7161C52.2875 23.1875 62.1166 31.9965 61.75 32.625C60.4375 33.25 54.75 33.5625 53.8125 34.6875C53.3125 35.6875 51.1877 45.9864 51.1877 48.1693C51.1877 48.7454 50.7163 52.1496 51.1877 52.621C52.3126 53.7459 60.8539 53.9379 63.3124 54.375C64.701 54.6219 68.0086 54.6111 69.3124 54.6111C70.098 53.8256 70.4745 49.0073 71.3125 48.1693C72.5625 47.6413 80 57.75 80 59.3125C80 60.875 78.25 62.9633 76.5625 64.0625C74.875 65.75 70.0457 69.25 69.3124 68.6875C68.5807 67.5614 70.0456 63.3013 69.3124 62.8125C68.4054 62.2079 62.8413 61.8006 61.75 61.7133C56.6175 61.2943 53.5802 61.2957 48.5 60.5625C45.8559 60.0337 42.875 59.8771 42.875 56.875C42.875 55.0419 43.4421 51.8026 43.704 50.022C44.5419 44.1038 45.0164 36.8704 45.8125 32.625C44.3649 31.9441 41.6984 31.6719 40.9129 31.5671C40.7034 31.5671 39.2369 31.6719 39.5512 31.0434Z"></path><path stroke="#292524" stroke-linecap="round" stroke-linejoin="round" stroke-miterlimit="2.854" stroke-width="4" d="M79.1989 11.9768C76.1552 9.20977 60.2726 0.798077 40.7376 5.72335C31.4404 8.04763 22.8074 13.0836 16.1665 20.0011C13.1782 23.1001 11.4073 27.0293 9.47038 30.7371C5.20919 38.9274 2.27618 49.3314 3.549 58.6838C3.99172 62.1149 5.37523 65.6567 6.64805 68.8664C8.86166 74.4558 13.5656 78.8277 17.9928 82.6461C30.1123 93.1607 47.6551 97.1452 63.427 95.7617C70.1232 95.2083 77.1514 93.2714 82.5193 89.0656C84.899 87.184 86.6699 84.583 88.4407 82.1481C95.5796 72.5742 97.4612 60.2887 96.0777 48.6119C95.1922 41.4177 94.4728 34.2235 91.1524 27.9147C88.3854 22.7681 84.8436 17.1234 79.1989 11.9768Z"></path><path stroke="#292524" stroke-linecap="round" stroke-linejoin="round" stroke-miterlimit="2.854" stroke-width="4" d="M39.5512 31.0434C40.232 29.6817 50.7687 22.6637 50.8735 22.7161C52.2875 23.1875 62.1166 31.9965 61.75 32.625C60.4375 33.25 54.75 33.5625 53.8125 34.6875C53.3125 35.6875 51.1877 45.9864 51.1877 48.1693C51.1877 48.7454 50.7163 52.1496 51.1877 52.621C52.3126 53.7459 60.8539 53.9379 63.3124 54.375C64.701 54.6219 68.0086 54.6111 69.3124 54.6111C70.098 53.8256 70.4745 49.0073 71.3125 48.1693C72.5625 47.6413 80 57.75 80 59.3125C80 60.875 78.25 62.9633 76.5625 64.0625C74.875 65.75 70.0457 69.25 69.3124 68.6875C68.5807 67.5614 70.0456 63.3013 69.3124 62.8125C68.4054 62.2079 62.8413 61.8006 61.75 61.7133C56.6175 61.2943 53.5802 61.2957 48.5 60.5625C45.8559 60.0337 42.875 59.8771 42.875 56.875C42.875 55.0419 43.4421 51.8026 43.704 50.022C44.5419 44.1038 45.0164 36.8704 45.8125 32.625C44.3649 31.9441 41.6984 31.6719 40.9129 31.5671C40.7034 31.5671 39.2369 31.6719 39.5512 31.0434Z"></path><path stroke="#292524" stroke-linecap="round" stroke-linejoin="round" stroke-miterlimit="2.854" stroke-width="4" d="M51.4497 12.5034C51.2402 12.4511 52.1829 12.5558 52.34 12.5558C53.0208 12.7129 53.9636 12.7653 54.6444 12.7653"></path><path stroke="#292524" stroke-linecap="round" stroke-linejoin="round" stroke-miterlimit="2.854" stroke-width="4" d="M47.574 87.0827C46.317 86.9779 50.245 87.0827 50.9258 87.0827"></path><path stroke="#292524" stroke-linecap="round" stroke-linejoin="round" stroke-miterlimit="2.854" stroke-width="4" d="M11.5416 44.4507C10.5465 45.5 10.5465 46.4409 10.5465 46.8075"></path><path stroke="#292524" stroke-linecap="round" stroke-linejoin="round" stroke-miterlimit="2.854" stroke-width="4" d="M89.4212 50.5674C89.6831 51.4053 89.4736 52.5575 89.4736 53.4479"></path><path stroke="#292524" stroke-linecap="round" stroke-linejoin="round" stroke-miterlimit="2.854" stroke-width="4" d="M14.0554 59.4819C13.7936 59.6391 14.8934 61.8911 15.4171 62.4148"></path><path stroke="#292524" stroke-linecap="round" stroke-linejoin="round" stroke-miterlimit="2.854" stroke-width="4" d="M28.3533 75.1938C28.039 75.351 30.8148 77.3411 31.7051 77.3411"></path><path stroke="#292524" stroke-linecap="round" stroke-linejoin="round" stroke-miterlimit="2.854" stroke-width="4" d="M18.9261 33.5577C18.9785 32.7721 20.3597 30.625 21.25 30.625"></path><path stroke="#292524" stroke-linecap="round" stroke-linejoin="round" stroke-miterlimit="2.854" stroke-width="4" d="M31.4433 22.1922C31.3909 22.1922 32.3336 21.6685 32.4907 21.5114C33.2239 20.7782 33.8524 20.0973 34.7951 19.626"></path><path stroke="#292524" stroke-linecap="round" stroke-linejoin="round" stroke-miterlimit="2.854" stroke-width="4" d="M69.8171 19.9442C69.3458 19.7347 70.6027 20.4679 70.8122 20.5727C71.6502 20.9393 72.3834 21.4106 73.0119 21.9867"></path><path stroke="#292524" stroke-linecap="round" stroke-linejoin="round" stroke-miterlimit="2.854" stroke-width="4" d="M83.0637 32.5723C82.959 33.3579 84.6873 35.6623 85.0539 36.6574"></path><path stroke="#292524" stroke-linecap="round" stroke-linejoin="round" stroke-miterlimit="2.854" stroke-width="4" d="M86.2171 66.375C86.06 67.2653 85.375 68.4375 84.2269 69.5697"></path><path stroke="#292524" stroke-linecap="round" stroke-linejoin="round" stroke-miterlimit="2.854" stroke-width="4" d="M66.9072 83.5736C67.875 83.5736 68.4185 83.5736 68.7327 83.5736C69.8849 83.4689 71.1419 82.8404 71.9274 82.0024"></path></svg>